<svg id="Icons" height="512" viewBox="0 0 74 74" width="512" xmlns="http://www.w3.org/2000/svg"><path d="m10.339 25.96a1 1 0 0 1 -.8-1.6 24.142 24.142 0 0 1 2.036-2.338 1 1 0 0 1 1.425 1.4 22.013 22.013 0 0 0 -1.865 2.141 1 1 0 0 1 -.796.397z"/><path d="m31.03 68.39a27.282 27.282 0 0 1 -27.23-25.683 1 1 0 1 1 2-.114 25.285 25.285 0 0 0 36.321 21.239 25.269 25.269 0 0 0 7.061-40.286 25.248 25.248 0 0 0 -30.75-4.311.994.994 0 0 1 -.5.135 1 1 0 0 1 -.422-1.911 27.264 27.264 0 1 1 13.52 50.931z"/><path d="m5.721 35.11a.968.968 0 0 1 -.254-.033 1 1 0 0 1 -.714-1.221 24.247 24.247 0 0 1 1.063-3.118 1 1 0 0 1 1.849.764 22.168 22.168 0 0 0 -.977 2.861 1 1 0 0 1 -.967.747z"/><path d="m31.031 59.308a18.183 18.183 0 1 1 18.181-18.182 18.2 18.2 0 0 1 -18.181 18.182zm0-34.365a16.183 16.183 0 1 0 16.181 16.183 16.2 16.2 0 0 0 -16.181-16.183z"/><path d="m31.031 50.223a9.1 9.1 0 1 1 9.1-9.1 9.108 9.108 0 0 1 -9.1 9.1zm0-16.195a7.1 7.1 0 1 0 7.1 7.1 7.106 7.106 0 0 0 -7.1-7.1z"/><path d="m32.25 41.126a1 1 0 0 1 -.7-1.714l27.042-26.474a1 1 0 1 1 1.4 1.428l-27.042 26.474a1 1 0 0 1 -.7.286z"/><path d="m63.263 18.7h-.056l-7.677-.431a1 1 0 0 1 -.941-.924l-.613-8.153a1 1 0 0 1 .293-.786l6.155-6.116a1 1 0 0 1 1.686.519l1.3 6.706 6.025 1.25a1 1 0 0 1 .5 1.688l-5.966 5.947a1 1 0 0 1 -.706.3zm-6.745-2.381 6.356.357 4.341-4.325-4.859-1.008a1 1 0 0 1 -.778-.788l-1.078-5.526-4.5 4.465z"/><path d="m47.014 72a1 1 0 0 1 -.817-.421l-4.448-6.27a1 1 0 1 1 1.63-1.158l3.909 5.508 4.214-2.58-3.813-5.813a1 1 0 0 1 1.673-1.1l4.378 6.675a1 1 0 0 1 -.314 1.4l-5.891 3.607a1 1 0 0 1 -.521.152z"/><path d="m15.048 72a1 1 0 0 1 -.522-.147l-5.891-3.607a1 1 0 0 1 -.314-1.4l4.379-6.677a1 1 0 0 1 1.673 1.1l-3.813 5.81 4.214 2.58 3.908-5.508a1 1 0 0 1 1.631 1.158l-4.449 6.27a1 1 0 0 1 -.816.421z"/></svg>